<svg width="31" height="34" viewBox="0 0 31 34" fill="none" xmlns="http://www.w3.org/2000/svg">
<path d="M29.3921 6.60538C26.4118 4.26754 23.5819 1.71228 20.1106 0.0551296C19.7553 -0.122541 19.168 0.147943 19.291 0.598291C19.9896 4.21175 20.6197 7.81079 21.8103 11.2758C22.0151 11.8486 22.876 11.8099 22.9987 11.1967C23.2304 10.0393 23.5303 8.8945 23.9265 7.80562C27.8919 13.9213 32.8013 20.8284 26.8463 27.4922C24.1966 30.4298 21.0886 31.3462 16.2999 32.0597C11.5112 32.7733 6.12465 32.0597 0.650008 28.8012C0.431042 28.4733 -0.114959 28.7174 0.0216476 29.0998C7.21957 35.3456 19.6632 35.6785 26.3558 29.7663C29.6751 26.8579 31.5996 23.1007 30.8318 18.5881C30.1468 14.5525 27.5758 10.8806 25.2241 7.53552C26.4675 7.71533 27.7382 7.75937 28.9679 7.65388C29.5428 7.6281 29.8569 6.94699 29.3921 6.60538ZM23.899 6.34695C23.5988 6.42818 23.5165 6.65935 23.5709 6.91869C23.5709 6.91869 23.5709 6.91869 23.5573 6.98658C23.0385 7.62578 22.6836 8.33396 22.3964 9.05522C21.6709 6.64109 21.1781 4.13267 20.6712 1.69145C23.0766 2.99219 25.1405 4.75484 27.26 6.42276C26.1125 6.29707 25.0052 6.14475 23.899 6.34695Z" fill="#B5B5B5"/>
</svg>
