<svg width="16" height="16" viewBox="0 0 16 16" fill="none" xmlns="http://www.w3.org/2000/svg">
<path d="M9.46573 8.00018L15.6958 1.76967C16.1014 1.36455 16.1014 0.708963 15.6958 0.303841C15.2907 -0.10128 14.6352 -0.10128 14.2301 0.303841L8 6.53435L1.76992 0.303841C1.36434 -0.10128 0.709279 -0.10128 0.304185 0.303841C-0.101395 0.708963 -0.101395 1.36455 0.304185 1.76967L6.53427 8.00018L0.304185 14.2307C-0.101395 14.6358 -0.101395 15.2914 0.304185 15.6965C0.506003 15.8988 0.771527 16 1.03705 16C1.30257 16 1.56761 15.8984 1.76992 15.6965L8 9.46601L14.2301 15.6965C14.4324 15.8988 14.6974 16 14.9629 16C15.2285 16 15.4935 15.8984 15.6958 15.6965C16.1014 15.2914 16.1014 14.6358 15.6958 14.2307L9.46573 8.00018Z" fill="#61D867"/>
</svg>
