<svg width="10" height="20" viewBox="0 0 10 20" fill="none" xmlns="http://www.w3.org/2000/svg">
<path fill-rule="evenodd" clip-rule="evenodd" d="M2.21955 19.748C2.21955 19.8858 2.33372 20 2.47151 20H6.06207C6.19986 20 6.31403 19.8858 6.31403 19.748V9.92126H8.9164C9.04632 9.92126 9.15656 9.82283 9.16837 9.68898L9.42033 6.72835C9.43215 6.58268 9.31797 6.45669 9.16837 6.45669H6.31403V4.35433C6.31403 3.8622 6.71167 3.46457 7.2038 3.46457H9.21167C9.34947 3.46457 9.46364 3.35039 9.46364 3.2126V0.251969C9.46364 0.114173 9.3534 0 9.21167 0H5.82191C3.83372 0 2.21955 1.61417 2.21955 3.60236V6.45669H0.424271C0.286475 6.45669 0.172302 6.57087 0.172302 6.70866V9.66929C0.172302 9.80709 0.286475 9.92126 0.424271 9.92126H2.21955V19.748Z" fill="#3C5A99"/>
</svg>
