<svg width="21" height="20" viewBox="0 0 21 20" fill="none" xmlns="http://www.w3.org/2000/svg">
<path d="M15.8588 5.9191C16.5116 5.9191 17.0407 5.39346 17.0407 4.74506C17.0407 4.09666 16.5116 3.57103 15.8588 3.57103C15.2061 3.57103 14.6769 4.09666 14.6769 4.74506C14.6769 5.39346 15.2061 5.9191 15.8588 5.9191Z" fill="#D53692"/>
<path d="M10.6122 5.0762C7.87711 5.0762 5.65344 7.28504 5.65344 10.0019C5.65344 12.7187 7.87711 14.9276 10.6122 14.9276C13.3473 14.9276 15.5709 12.7187 15.5709 10.0019C15.5709 7.28504 13.3473 5.0762 10.6122 5.0762ZM10.6122 13.1552C8.86204 13.1552 7.43768 11.7404 7.43768 10.0019C7.43768 8.26341 8.86204 6.84854 10.6122 6.84854C12.3623 6.84854 13.7867 8.26341 13.7867 10.0019C13.7905 11.7404 12.3661 13.1552 10.6122 13.1552Z" fill="#D53692"/>
<path d="M14.5481 20H6.50957C3.17597 20 0.463623 17.3057 0.463623 13.9906V6.00564C0.463623 2.69426 3.17597 0 6.50957 0H14.5481C17.8817 0 20.5941 2.69426 20.5941 6.00564V13.9906C20.5979 17.3057 17.8855 20 14.5481 20ZM6.50957 1.88147C4.22151 1.88147 2.35772 3.73283 2.35772 6.00564V13.9906C2.35772 16.2672 4.22151 18.1148 6.50957 18.1148H14.5481C16.84 18.1148 18.7 16.2634 18.7 13.9906V6.00564C18.7038 3.73283 16.84 1.88147 14.5481 1.88147H6.50957Z" fill="#D53692"/>
</svg>
