<svg width="20" height="20" viewBox="0 0 20 20" fill="none" xmlns="http://www.w3.org/2000/svg">
<path d="M19.9824 7.57784C19.9777 7.55791 19.9715 7.53877 19.9633 7.52002C19.9539 7.50244 19.9426 7.48564 19.9301 7.47002C19.9168 7.45087 19.9016 7.43329 19.8848 7.41728C19.8793 7.41259 19.877 7.40634 19.8715 7.40204L16.6667 4.912V2.33172C16.6667 1.77934 16.2191 1.33165 15.6667 1.33165H12.0541L10.608 0.208903C10.2506 -0.0696343 9.7498 -0.0696343 9.39237 0.208903L7.94547 1.33165H4.3329C3.78054 1.33165 3.33288 1.77934 3.33288 2.33172V4.9124L0.128518 7.40243C0.122659 7.40673 0.120705 7.41298 0.115237 7.41767C0.0984394 7.43369 0.0832048 7.45126 0.0699232 7.47041C0.057423 7.48603 0.0460947 7.50283 0.0367195 7.52041C0.0285162 7.53916 0.0222661 7.5583 0.0175785 7.57823C0.0105471 7.59971 0.00585949 7.62237 0.00390633 7.64503C0.00390633 7.65167 0 7.65753 0 7.66456V19.0002C0.0011719 19.1076 0.0203129 19.2139 0.0558605 19.3151C-0.0207035 19.4303 -0.0171878 19.5815 0.064845 19.6928C0.146878 19.8046 0.289459 19.8534 0.422664 19.8151C0.591027 19.9354 0.792984 20.0003 1.00002 20.0003H19.0004C19.2082 19.9999 19.4109 19.9343 19.5793 19.8128C19.6078 19.8214 19.6371 19.8264 19.6668 19.8272C19.7887 19.828 19.9008 19.7616 19.959 19.6546C20.0172 19.5475 20.0117 19.4174 19.9449 19.3155C19.9805 19.2143 19.9992 19.1076 20.0004 19.0006V7.66573C20.0004 7.6587 19.9969 7.65284 19.9965 7.6462C19.9941 7.62276 19.9895 7.6001 19.9824 7.57784ZM9.7998 0.734725C9.91621 0.64214 10.0811 0.64214 10.1975 0.734725L10.9666 1.33165H9.03338L9.7998 0.734725ZM3.66648 8.66581C3.85047 8.66581 3.99969 8.51658 3.99969 8.33258V2.33172C3.99969 2.14773 4.14891 1.9985 4.3329 1.9985H15.6663C15.8503 1.9985 15.9995 2.14773 15.9995 2.33172V8.33219C15.9995 8.51619 16.1488 8.66542 16.3327 8.66542C16.5167 8.66542 16.666 8.51619 16.666 8.33219V5.75621L19.0117 7.57862L13.4522 11.8961C13.3069 12.009 13.2803 12.2184 13.3932 12.3641C13.5061 12.5095 13.7155 12.536 13.8612 12.4231L19.3332 8.17398V18.8131L10.6072 12.0348C10.2502 11.7567 9.7498 11.7567 9.39237 12.0348L0.666419 18.8127V8.1732L6.12903 12.4153C6.27473 12.5282 6.48411 12.5017 6.597 12.3563C6.7099 12.2106 6.68333 12.0012 6.53802 11.8883L0.98791 7.57862L3.33288 5.7566V8.33258C3.33288 8.51658 3.48249 8.66581 3.66648 8.66581ZM18.9176 19.3331H1.08244L9.7998 12.561C9.91621 12.4692 10.0807 12.4692 10.1971 12.561L18.9176 19.3331Z" fill="#262626"/>
<path d="M6.66662 4.33186H13.3335C13.5175 4.33186 13.6667 4.18263 13.6667 3.99863C13.6667 3.81463 13.5175 3.6654 13.3335 3.6654H6.66662C6.48263 3.6654 6.33341 3.81463 6.33341 3.99863C6.33302 4.18263 6.48263 4.33186 6.66662 4.33186Z" fill="#262626"/>
<path d="M6.66664 6.33201H13.3336C13.5175 6.33201 13.6668 6.18278 13.6668 5.99878C13.6668 5.81478 13.5175 5.66555 13.3336 5.66555H6.66664C6.48265 5.66555 6.33343 5.81478 6.33343 5.99878C6.33343 6.18278 6.48265 6.33201 6.66664 6.33201Z" fill="#262626"/>
<path d="M13.3329 7.66571H10.3328C10.1489 7.66571 9.99963 7.81494 9.99963 7.99894C9.99963 8.18294 10.1489 8.33217 10.3328 8.33217H13.3329C13.5169 8.33217 13.6661 8.18294 13.6661 7.99894C13.6665 7.81494 13.5173 7.66571 13.3329 7.66571Z" fill="#262626"/>
</svg>
