<svg width="14" height="20" viewBox="0 0 14 20" fill="none" xmlns="http://www.w3.org/2000/svg">
<path d="M6.8087 10.8231C9.8544 10.8231 12.3238 8.40033 12.3238 5.41133C12.3238 2.42234 9.8548 0 6.8087 0C3.7626 0 1.29399 2.42273 1.29399 5.41172C1.29756 8.39877 3.76459 10.8195 6.8087 10.8231ZM6.8087 2.49766C8.44888 2.49766 9.77844 3.8023 9.77844 5.41172C9.77844 7.02115 8.44888 8.32579 6.8087 8.32579C5.16852 8.32579 3.83896 7.02115 3.83896 5.41172C3.83896 3.8023 5.16892 2.49766 6.8087 2.49766Z" fill="#FE8303"/>
<path d="M12.2109 13.3874C12.8102 12.9999 13.1713 12.3431 13.1721 11.6391C13.1805 11.0545 12.8444 10.5179 12.3091 10.2611C11.7595 9.9918 11.1012 10.0523 10.6121 10.4176C8.34588 12.0387 5.27194 12.0387 3.00576 10.4176C2.51617 10.0542 1.85915 9.99375 1.30871 10.2611C0.774182 10.5179 0.438113 11.0541 0.445272 11.6383C0.446465 12.3423 0.80759 12.9991 1.40655 13.3867C2.17493 13.8882 3.01212 14.2808 3.89266 14.5524C4.0422 14.598 4.19612 14.6402 4.35521 14.6788L1.79114 17.139C1.1186 17.7794 1.1023 18.8335 1.75495 19.4934C2.4076 20.1534 3.48182 20.1694 4.15436 19.529C4.16828 19.5157 4.1822 19.502 4.19572 19.4884L6.80911 16.8342L9.42726 19.4934C10.0791 20.1542 11.1537 20.1709 11.8267 19.5309C12.4996 18.8913 12.5171 17.8368 11.8649 17.1765C11.8513 17.1628 11.8374 17.1492 11.8231 17.1359L9.2634 14.678C9.42249 14.6382 9.5772 14.5957 9.72754 14.5508C10.6073 14.28 11.4433 13.8882 12.2109 13.3874Z" fill="#FE8303"/>
</svg>
