<svg width="20" height="20" viewBox="0 0 20 20" fill="none" xmlns="http://www.w3.org/2000/svg">
<path d="M19.9866 16.4614C19.9234 15.9809 19.6453 15.5668 19.2258 15.3243L14.2916 12.4837C13.6874 12.136 12.9207 12.2369 12.4277 12.7304L11.4558 13.7023C11.1971 13.961 10.7879 13.9836 10.5038 13.7552C9.73763 13.1386 8.98331 12.4605 8.26193 11.7386C7.54055 11.0172 6.86182 10.2629 6.24519 9.49672C6.01679 9.21271 6.04001 8.80397 6.29865 8.5448L7.27057 7.5729C7.76355 7.07994 7.86506 6.31322 7.51733 5.70902L4.67554 0.775028C4.43364 0.354953 4.01949 0.0774221 3.53893 0.0137089C3.05837 -0.0500043 2.5859 0.110359 2.24303 0.453222L0.778666 1.91755C-0.243473 2.93966 -0.259672 4.80948 0.73223 7.18198C1.68633 9.46324 3.46711 11.9751 5.74573 14.2542C8.02489 16.5332 10.5362 18.3134 12.8181 19.2675C13.986 19.7556 15.0319 20.0002 15.9153 19.9997C16.8262 19.9997 17.5638 19.74 18.0827 19.2211L19.547 17.7568C19.8899 17.4144 20.0503 16.942 19.9866 16.4614ZM13.9682 13.0452L18.9023 15.8864C19.1464 16.0268 19.3073 16.2676 19.3446 16.5467C19.3753 16.7811 19.3143 17.0116 19.1766 17.1979L12.6188 13.4545L12.885 13.1883C13.1718 12.9021 13.6172 12.8433 13.9682 13.0452ZM3.45361 0.65624C3.73277 0.692956 3.97359 0.854399 4.11398 1.09845L6.9547 6.03245C7.15718 6.38341 7.09832 6.82886 6.81161 7.11503L6.56701 7.35963L2.80404 0.824162C2.95793 0.710235 3.14152 0.648681 3.33374 0.648681C3.3737 0.648141 3.41366 0.650841 3.45361 0.65624ZM17.6248 18.7632C16.8127 19.5753 15.1523 19.5413 13.0686 18.6698C10.8629 17.7476 8.42554 16.0165 6.2047 13.7957C3.98385 11.575 2.25329 9.13766 1.33104 6.93199C0.459011 4.84835 0.424994 3.18803 1.23709 2.37596L2.32402 1.28905L6.09292 7.83477L5.84022 8.08747C5.34724 8.58043 5.30405 9.36119 5.74033 9.90329C6.37154 10.6873 7.06593 11.4594 7.80405 12.197C8.54217 12.9351 9.31377 13.6294 10.0978 14.2601C10.6399 14.6964 11.4207 14.6532 11.9137 14.1602L12.1442 13.9296L18.7106 17.6774L17.6248 18.7632Z" fill="#262626"/>
</svg>
