<svg width="10" height="20" viewBox="0 0 10 20" fill="none" xmlns="http://www.w3.org/2000/svg">
<path fill-rule="evenodd" clip-rule="evenodd" d="M5 0C2.24305 0 0 2.28125 0 5.08516C0 7.75781 2.03756 9.95547 4.61592 10.1555V11.7734C4.61592 11.9891 4.78799 12.1641 5 12.1641C5.21201 12.1641 5.38408 11.9891 5.38408 11.7734V10.1555C7.96244 9.95508 10 7.75781 10 5.08516C10 2.28125 7.75695 0 5 0ZM5 9.38906C2.66669 9.38906 0.768167 7.4582 0.768167 5.08516C0.768167 2.71211 2.66669 0.78125 5 0.78125C7.33331 0.78125 9.23183 2.71211 9.23183 5.08516C9.23183 7.4582 7.33331 9.38906 5 9.38906Z" fill="#262626"/>
<path fill-rule="evenodd" clip-rule="evenodd" d="M4.99998 1.70156C3.16559 1.70156 1.67305 3.21953 1.67305 5.08516C1.67305 5.30078 1.84512 5.47578 2.05713 5.47578C2.26914 5.47578 2.44121 5.30078 2.44121 5.08516C2.44121 3.65039 3.58924 2.48281 4.99998 2.48281C5.21199 2.48281 5.38406 2.30781 5.38406 2.09219C5.38406 1.87656 5.21199 1.70156 4.99998 1.70156Z" fill="#262626"/>
<path fill-rule="evenodd" clip-rule="evenodd" d="M5.38409 16.6555V14.8984C5.38409 14.6828 5.21202 14.5078 5.00001 14.5078C4.78799 14.5078 4.61592 14.6828 4.61592 14.8984V16.6555C3.08112 16.7539 1.96651 17.4367 1.96651 18.3215C1.96651 19.2785 3.27086 20 5.00001 20C6.72953 20 8.0335 19.2781 8.0335 18.3215C8.0335 17.4367 6.91889 16.7535 5.38409 16.6555ZM5.00001 19.2188C3.6173 19.2188 2.73468 18.6871 2.73468 18.3215C2.73468 17.9906 3.45599 17.5246 4.61592 17.4383V18.3215C4.61592 18.5371 4.78799 18.7121 5.00001 18.7121C5.21202 18.7121 5.38409 18.5371 5.38409 18.3215V17.4383C6.54441 17.5246 7.26533 17.9906 7.26533 18.3215C7.26533 18.6871 6.38309 19.2188 5.00001 19.2188Z" fill="#262626"/>
<path fill-rule="evenodd" clip-rule="evenodd" d="M5.00001 13.7266C5.21164 13.7266 5.38409 13.5512 5.38409 13.3359C5.38409 13.1207 5.21164 12.9453 5.00001 12.9453C4.78838 12.9453 4.61593 13.1207 4.61593 13.3359C4.61593 13.5512 4.78838 13.7266 5.00001 13.7266Z" fill="#262626"/>
</svg>
