<svg width="20" height="20" viewBox="0 0 20 20" fill="none" xmlns="http://www.w3.org/2000/svg">
<path d="M0.333441 10.3351C0.516833 10.3351 0.666881 10.185 0.666881 10.0017C0.666881 4.85414 4.85489 0.666778 10.0032 0.666778C12.1139 0.666778 14.1312 1.37023 15.7717 2.66711H14.0045C13.8211 2.66711 13.6711 2.81714 13.6711 3.0005C13.6711 3.18386 13.8211 3.33389 14.0045 3.33389H16.6454C16.6687 3.33722 16.6887 3.33722 16.7087 3.33389H17.0055V0.333389C17.0055 0.150025 16.8554 0 16.672 0C16.4886 0 16.3386 0.150025 16.3386 0.333389V2.27038C14.5513 0.803467 12.3306 0 10.0032 0C4.48811 0 0 4.48741 0 10.0017C0 10.185 0.150048 10.3351 0.333441 10.3351Z" fill="#262626"/>
<path d="M10.0032 2.66711C5.95858 2.66711 2.66752 5.95766 2.66752 10.0017C2.66752 14.0457 5.95858 17.3362 10.0032 17.3362C14.0479 17.3362 17.3389 14.0457 17.3389 10.0017C17.3389 5.95766 14.0479 2.66711 10.0032 2.66711ZM10.0032 16.6694C6.32537 16.6694 3.33441 13.6789 3.33441 10.0017C3.33441 6.32439 6.32537 3.33389 10.0032 3.33389C13.6811 3.33389 16.672 6.32439 16.672 10.0017C16.672 13.6789 13.6811 16.6694 10.0032 16.6694Z" fill="#262626"/>
<path d="M10.0032 5.00083C10.1866 5.00083 10.3367 4.85081 10.3367 4.66744V4.00067C10.3367 3.8173 10.1866 3.66728 10.0032 3.66728C9.81982 3.66728 9.66978 3.8173 9.66978 4.00067V4.66744C9.66978 4.85081 9.81982 5.00083 10.0032 5.00083Z" fill="#262626"/>
<path d="M10.0032 15.0025C9.81982 15.0025 9.66978 15.1525 9.66978 15.3359V16.0027C9.66978 16.186 9.81982 16.3361 10.0032 16.3361C10.1866 16.3361 10.3367 16.186 10.3367 16.0027V15.3359C10.3367 15.1525 10.1866 15.0025 10.0032 15.0025Z" fill="#262626"/>
<path d="M15.3383 10.3351H16.0051C16.1885 10.3351 16.3386 10.185 16.3386 10.0017C16.3386 9.8183 16.1885 9.66828 16.0051 9.66828H15.3383C15.1549 9.66828 15.0048 9.8183 15.0048 10.0017C15.0048 10.185 15.1549 10.3351 15.3383 10.3351Z" fill="#262626"/>
<path d="M4.66817 9.66828H4.00129C3.81789 9.66828 3.66785 9.8183 3.66785 10.0017C3.66785 10.185 3.81789 10.3351 4.00129 10.3351H4.66817C4.85156 10.3351 5.00161 10.185 5.00161 10.0017C5.00161 9.8183 4.85156 9.66828 4.66817 9.66828Z" fill="#262626"/>
<path d="M10.3366 8.3814V6.66778C10.3366 6.48441 10.1866 6.33439 10.0032 6.33439C9.81981 6.33439 9.66976 6.48441 9.66976 6.66778V8.3814C9.09625 8.53142 8.66944 9.04817 8.66944 9.66828C8.66944 9.91499 8.7428 10.1417 8.8595 10.3417L6.10195 13.0989C5.97191 13.2289 5.97191 13.4389 6.10195 13.5689C6.1653 13.6356 6.24866 13.6689 6.33536 13.6689C6.42205 13.6689 6.50541 13.6356 6.5721 13.5723L9.32966 10.8151C9.52972 10.9285 9.75646 11.0018 10.0032 11.0018C10.7401 11.0018 11.337 10.4051 11.337 9.66828C11.337 9.04817 10.9102 8.53142 10.3366 8.3814ZM10.0032 10.3351C9.63642 10.3351 9.33632 10.035 9.33632 9.66828C9.33632 9.30155 9.63642 9.0015 10.0032 9.0015C10.37 9.0015 10.6701 9.30155 10.6701 9.66828C10.6701 10.035 10.37 10.3351 10.0032 10.3351Z" fill="#262626"/>
<path d="M3.96462 17.5563C3.85459 17.7029 3.8846 17.913 4.03465 18.023C4.09133 18.0663 4.16135 18.0863 4.23138 18.0863C4.33474 18.0863 4.43477 18.043 4.50146 17.953C4.60816 17.8063 4.57815 17.5963 4.43144 17.4862C4.28473 17.3762 4.07466 17.4062 3.96462 17.5563Z" fill="#262626"/>
<path d="M2.41077 15.4259C2.30407 15.2792 2.09401 15.2425 1.94396 15.3492C1.79391 15.4592 1.76056 15.6659 1.86727 15.816C1.93395 15.906 2.03399 15.956 2.14069 15.956C2.20737 15.956 2.27406 15.936 2.33408 15.8926C2.48413 15.786 2.51747 15.5759 2.41077 15.4259Z" fill="#262626"/>
<path d="M2.5408 16.1527C2.40409 16.276 2.39075 16.4861 2.51412 16.6228C2.57748 16.6994 2.67084 16.7361 2.7642 16.7361C2.84089 16.7361 2.92092 16.7094 2.98427 16.6528C3.12098 16.5294 3.13432 16.3194 3.01095 16.1827C2.89091 16.0427 2.68084 16.0327 2.5408 16.1527Z" fill="#262626"/>
<path d="M3.68785 16.8695C3.55447 16.7461 3.34107 16.7561 3.2177 16.8895C3.09099 17.0262 3.10099 17.2362 3.2377 17.3629C3.30106 17.4196 3.38108 17.4496 3.46111 17.4496C3.55114 17.4496 3.64117 17.4129 3.70786 17.3429C3.83123 17.2062 3.82456 16.9962 3.68785 16.8728C3.68785 16.8695 3.68785 16.8695 3.68785 16.8695Z" fill="#262626"/>
<path d="M1.89062 14.6158C1.88729 14.6158 1.88729 14.6158 1.88729 14.6158C1.79726 14.4557 1.59386 14.3991 1.43381 14.4924C1.27376 14.5824 1.21707 14.7858 1.31044 14.9458C1.37046 15.0525 1.48383 15.1125 1.60053 15.1125C1.65388 15.1125 1.7139 15.0992 1.76392 15.0692C1.92397 14.9792 1.98065 14.7758 1.89062 14.6158Z" fill="#262626"/>
<path d="M19.653 10.7085C19.6597 10.7085 19.663 10.7085 19.6663 10.7085C19.8464 10.7085 19.9931 10.5651 19.9998 10.3884C20.0064 10.2017 19.8631 10.0483 19.6797 10.0417C19.4963 10.035 19.3396 10.1784 19.3329 10.3617C19.3262 10.5451 19.4696 10.7018 19.653 10.7085Z" fill="#262626"/>
<path d="M0.420133 11.3319C0.603526 11.3119 0.736902 11.1485 0.716895 10.9652C0.696889 10.7818 0.533503 10.6484 0.350111 10.6684C0.166718 10.6851 0.0333422 10.8518 0.0533486 11.0318C0.0700206 11.2052 0.216734 11.3319 0.383455 11.3319C0.396792 11.3319 0.406796 11.3319 0.420133 11.3319Z" fill="#262626"/>
<path d="M0.606853 12.3121C0.786911 12.2754 0.903615 12.0987 0.863602 11.9187C0.826924 11.7386 0.6502 11.6219 0.470143 11.6619C0.290085 11.6986 0.17338 11.8753 0.213393 12.0553C0.243403 12.212 0.383448 12.3187 0.536831 12.3187C0.560171 12.3187 0.583512 12.3187 0.606853 12.3121Z" fill="#262626"/>
<path d="M1.45379 13.7523C1.38044 13.5856 1.18371 13.5089 1.01365 13.5823C0.846932 13.6556 0.770241 13.8523 0.843597 14.0223C0.900282 14.1457 1.02032 14.2224 1.15036 14.2224C1.19371 14.2224 1.24039 14.2124 1.28374 14.1924C1.45046 14.119 1.52715 13.9223 1.45379 13.7523Z" fill="#262626"/>
<path d="M1.11036 12.8521C1.05701 12.6754 0.866953 12.5788 0.693564 12.6354C0.51684 12.6921 0.420142 12.8788 0.476827 13.0555C0.523509 13.1955 0.653551 13.2855 0.793596 13.2855C0.82694 13.2855 0.863618 13.2822 0.896962 13.2722C1.07035 13.2155 1.16705 13.0255 1.11036 12.8521Z" fill="#262626"/>
<path d="M9.82314 19.3332C9.63975 19.3299 9.48637 19.4766 9.48303 19.6599C9.4797 19.8466 9.62641 19.9967 9.8098 20C9.81314 20 9.81647 20 9.81647 20C9.99986 20 10.1466 19.8566 10.1499 19.6733C10.1532 19.4899 10.0065 19.3366 9.82314 19.3332Z" fill="#262626"/>
<path d="M17.3823 15.716C17.2689 15.8593 17.2956 16.0693 17.4389 16.1827C17.5023 16.2294 17.5723 16.2527 17.6457 16.2527C17.7424 16.2527 17.8424 16.2094 17.9091 16.1227C18.0225 15.9793 17.9958 15.7693 17.8491 15.6559C17.7024 15.5426 17.4956 15.5693 17.3823 15.716Z" fill="#262626"/>
<path d="M15.2816 17.6963C15.1316 17.7996 15.0915 18.0097 15.1982 18.1597C15.2616 18.253 15.365 18.3031 15.4717 18.3031C15.5383 18.3031 15.6017 18.2864 15.6617 18.2464C15.8118 18.143 15.8518 17.933 15.7451 17.783C15.6417 17.6296 15.435 17.5929 15.2816 17.6963Z" fill="#262626"/>
<path d="M16.0485 17.1095C15.9084 17.2295 15.8918 17.4396 16.0118 17.5796C16.0785 17.6563 16.1719 17.6963 16.2652 17.6963C16.3419 17.6963 16.4186 17.6696 16.482 17.6163C16.622 17.4963 16.6387 17.2862 16.5186 17.1462C16.3986 17.0062 16.1885 16.9895 16.0485 17.1095Z" fill="#262626"/>
<path d="M18.3926 14.8158C18.2359 14.7191 18.0291 14.7691 17.9324 14.9225C17.8358 15.0792 17.8824 15.2859 18.0392 15.3826C18.0958 15.4159 18.1559 15.4326 18.2159 15.4326C18.3259 15.4326 18.4359 15.3792 18.4993 15.2759C18.596 15.1192 18.5493 14.9125 18.3926 14.8158Z" fill="#262626"/>
<path d="M16.752 16.4461C16.622 16.5794 16.6287 16.7895 16.7621 16.9162C16.8254 16.9795 16.9088 17.0095 16.9921 17.0095C17.0788 17.0095 17.1688 16.9762 17.2322 16.9062C17.3589 16.7728 17.3556 16.5628 17.2222 16.4361C17.0888 16.3094 16.8788 16.3127 16.752 16.4461Z" fill="#262626"/>
<path d="M19.623 11.0385C19.4429 11.0118 19.2728 11.1419 19.2462 11.3219C19.2195 11.5053 19.3462 11.6719 19.5296 11.6986C19.5463 11.702 19.5629 11.702 19.5763 11.702C19.7397 11.702 19.883 11.5819 19.9064 11.4152C19.9331 11.2352 19.8064 11.0652 19.623 11.0385Z" fill="#262626"/>
<path d="M19.4663 12.0253C19.2862 11.982 19.1062 12.092 19.0595 12.2687C19.0161 12.4487 19.1262 12.6288 19.3029 12.6754C19.3296 12.6821 19.3562 12.6854 19.3829 12.6854C19.533 12.6854 19.6697 12.5821 19.7063 12.4321C19.753 12.252 19.643 12.072 19.4663 12.0253Z" fill="#262626"/>
<path d="M5.23501 18.023C5.07496 17.9297 4.87156 17.9797 4.77819 18.1397C4.6815 18.2964 4.73485 18.5031 4.89156 18.5964C4.94491 18.6298 5.00493 18.6431 5.06162 18.6431C5.17499 18.6431 5.28502 18.5864 5.34838 18.4797C5.44508 18.3231 5.39172 18.1197 5.23501 18.023Z" fill="#262626"/>
<path d="M19.2062 12.9922C19.0328 12.9288 18.8394 13.0188 18.7794 13.1922C18.716 13.3656 18.8027 13.5556 18.9761 13.6189C19.0128 13.6323 19.0528 13.6389 19.0895 13.6389C19.2262 13.6389 19.3562 13.5556 19.4029 13.4189C19.4663 13.2455 19.3796 13.0555 19.2062 12.9922Z" fill="#262626"/>
<path d="M18.8461 13.9257C18.6827 13.8456 18.4793 13.9123 18.3992 14.079C18.3192 14.2457 18.3892 14.4457 18.5526 14.5258C18.5993 14.5491 18.6493 14.5591 18.6993 14.5591C18.8227 14.5591 18.9427 14.4891 18.9994 14.3724C19.0795 14.2057 19.0128 14.0057 18.8461 13.9257Z" fill="#262626"/>
<path d="M8.85951 19.2665C8.67612 19.2432 8.51273 19.3732 8.48939 19.5566C8.46605 19.74 8.59609 19.9067 8.77948 19.9267V19.93C8.79282 19.93 8.80616 19.93 8.8195 19.93C8.98622 19.93 9.1296 19.8066 9.1496 19.6366C9.17295 19.4532 9.0429 19.2899 8.85951 19.2665Z" fill="#262626"/>
<path d="M6.98223 18.8365C6.80884 18.7765 6.61878 18.8665 6.55876 19.0432C6.49874 19.2165 6.59211 19.4066 6.7655 19.4666C6.80217 19.4766 6.83885 19.4832 6.87553 19.4832C7.01224 19.4832 7.14228 19.3966 7.18897 19.2599C7.24898 19.0832 7.15562 18.8931 6.98223 18.8365Z" fill="#262626"/>
<path d="M7.90922 19.0998C7.72916 19.0598 7.55243 19.1699 7.50909 19.3499C7.46907 19.5299 7.58244 19.71 7.75917 19.75C7.78584 19.7566 7.80918 19.7566 7.83586 19.7566C7.98591 19.7566 8.12595 19.6533 8.1593 19.4999C8.20265 19.3199 8.08927 19.1399 7.90922 19.0998Z" fill="#262626"/>
<path d="M6.08863 18.4764C5.91858 18.3964 5.72185 18.4697 5.64516 18.6364C5.56846 18.8031 5.63849 19.0032 5.80521 19.0798C5.85189 19.0999 5.89857 19.1099 5.94525 19.1099C6.07196 19.1099 6.192 19.0398 6.24868 18.9165C6.32537 18.7498 6.25535 18.5531 6.08863 18.4764Z" fill="#262626"/>
<path d="M11.7438 19.1732C11.5637 19.2065 11.4437 19.3832 11.477 19.5633C11.507 19.7233 11.6504 19.8333 11.8071 19.8333C11.8271 19.8333 11.8471 19.8333 11.8671 19.83C12.0472 19.7933 12.1672 19.6199 12.1339 19.4399C12.1006 19.2565 11.9238 19.1399 11.7438 19.1732Z" fill="#262626"/>
<path d="M12.6808 18.9465C12.504 18.9965 12.404 19.1832 12.4574 19.3599C12.5007 19.5032 12.6341 19.5966 12.7775 19.5966C12.8075 19.5966 12.8408 19.5933 12.8742 19.5833C13.0509 19.5299 13.1509 19.3432 13.0976 19.1665C13.0442 18.9932 12.8575 18.8931 12.6808 18.9465Z" fill="#262626"/>
<path d="M13.591 18.6198C13.421 18.6898 13.341 18.8865 13.411 19.0565C13.4643 19.1832 13.5877 19.2599 13.7177 19.2599C13.7611 19.2599 13.8044 19.2532 13.8478 19.2365C14.0178 19.1632 14.0979 18.9698 14.0278 18.7998C13.9545 18.6298 13.7611 18.5498 13.591 18.6198Z" fill="#262626"/>
<path d="M10.7868 19.3032C10.6034 19.3199 10.4667 19.4799 10.4834 19.6633C10.4967 19.8366 10.6434 19.97 10.8168 19.97C10.8235 19.97 10.8335 19.97 10.8435 19.97V19.9667C11.0269 19.9533 11.1636 19.7933 11.1469 19.6099C11.1336 19.4266 10.9702 19.2899 10.7868 19.3032Z" fill="#262626"/>
<path d="M14.4613 18.203C14.2979 18.2897 14.2379 18.4931 14.3279 18.6531C14.388 18.7665 14.5013 18.8298 14.6214 18.8298C14.6747 18.8298 14.7281 18.8165 14.7781 18.7865C14.9415 18.6998 15.0015 18.4964 14.9115 18.3364C14.8248 18.173 14.6214 18.113 14.4613 18.203Z" fill="#262626"/>
</svg>
