<svg width="35" height="20" viewBox="0 0 35 20" fill="none" xmlns="http://www.w3.org/2000/svg">
<path fill-rule="evenodd" clip-rule="evenodd" d="M33.6346 1.3879C33.8899 0.604982 33.6346 0.0355872 32.5037 0.0355872H28.7463C27.7978 0.0355872 27.36 0.533808 27.1047 1.06762C27.1047 1.06762 25.1712 5.62278 22.4717 8.57651C21.5962 9.4306 21.1949 9.7153 20.7207 9.7153C20.4653 9.7153 20.137 9.4306 20.137 8.64769V1.35231C20.137 0.427046 19.8451 0 19.0426 0H13.1328C12.5491 0 12.1843 0.427046 12.1843 0.854093C12.1843 1.74377 13.5341 1.9573 13.68 4.4484V9.85765C13.68 11.032 13.4611 11.2456 12.9869 11.2456C11.7101 11.2456 8.60929 6.6548 6.74881 1.42349C6.38401 0.391459 6.0192 0 5.07072 0H1.2768C0.1824 0 0 0.498221 0 1.03203C0 1.99288 1.2768 6.83274 5.94624 13.2384C9.04705 17.6157 13.4611 19.9644 17.4375 19.9644C19.8451 19.9644 20.137 19.4306 20.137 18.5409V15.2313C20.137 14.1637 20.3559 13.9858 21.1219 13.9858C21.6691 13.9858 22.6541 14.2705 24.8794 16.3701C27.433 18.8612 27.8707 20 29.2935 20H33.0509C34.1453 20 34.656 19.4662 34.3642 18.4342C34.0359 17.4021 32.7955 15.9075 31.1904 14.1281C30.3149 13.1317 29.0016 12.0285 28.6003 11.4947C28.0531 10.7829 28.1991 10.4982 28.6003 9.85765C28.5639 9.85765 33.1603 3.52313 33.6346 1.3879Z" fill="#4680C2"/>
</svg>
